<svg id="Layer_1" data-name="Layer 1" xmlns="http://www.w3.org/2000/svg" viewBox="0 0 809.6 725.13"><defs><style>.cls-1,.cls-2{fill:#fff;}.cls-2{stroke:#000;stroke-miterlimit:10;stroke-width:5px;}</style></defs><path class="cls-1" d="M144.84,518.29A159,159,0,0,1,207,495.9c-.12-3.94-.25-7.76-.25-11.7,0-159.27,125.31-290,282.67-298.57,5.35-.26,10.82-.39,16.29-.39s10.94.13,16.28.39c95.16,5.08,178.48,55,229.5,128.74a292.76,292.76,0,0,1,39.69,81,300.37,300.37,0,0,1,10.56,46.69c1,7.38,1.78,14.76,2.16,22.14.51,6.61.76,13.23.76,20,0,2.42,0,5-.13,7.38a159.77,159.77,0,0,1,62.09,22.52c.12,0,.12.12.25.12a292.19,292.19,0,0,0,1.4-30c0-118.69-57.37-224.28-145.79-290.43a.41.41,0,0,1-.25-.13,350.65,350.65,0,0,0-66-39.06,356.75,356.75,0,0,0-150.49-32.94c-160.55,0-297,105-344.5,249.72-2.42,7-4.46,14-6.36,21.25A338,338,0,0,0,146.74,434c-1.27,8.14-2,16.28-2.54,24.55-.76,8.53-1,17.05-1,25.7q0,16.21,1.53,32.06A10.66,10.66,0,0,0,144.84,518.29Z" transform="translate(-101.45 -121.64)"/><path class="cls-1" d="M868.06,560.4a161.09,161.09,0,0,0-64-31.17,154.09,154.09,0,0,0-19.85-3.43,187.66,187.66,0,0,0-22.9-1.4V588a126.13,126.13,0,0,1,23.92,2.29c-42.87,112.58-152,192.86-279.49,192.86A300.06,300.06,0,0,1,227.91,594.62a112.77,112.77,0,0,1,23.4-2.29v-63.6a181.79,181.79,0,0,0-44.14,5.21,158.67,158.67,0,0,0-63.61,31.55c-28.87,23.54-41.21,49.87-42.11,51.91L159.21,644a84.53,84.53,0,0,1,12.85-18.19c1.53,3.82,3.18,7.51,5.09,11.2A363,363,0,0,0,492.77,846.51c4.33.13,8.65.25,13,.25,5,0,9.79-.12,14.75-.38h.64c140.06-5.85,259.77-91.46,314.73-212.7,1.78-3.82,3.44-7.63,5.09-11.58a79.59,79.59,0,0,1,12.34,17.56l57.75-26.59C910.16,611,897.57,584.06,868.06,560.4Z" transform="translate(-101.45 -121.64)"/><path class="cls-1" d="M505.75,252.81a287.31,287.31,0,0,0-31.55,1.65l1.27,245.77,156.06,177.3a300.6,300.6,0,0,0,46.82-43L539,476.69,537.8,254.46C527.25,253.45,516.56,252.81,505.75,252.81Z" transform="translate(-101.45 -121.64)"/><path class="cls-2" d="M275.73,480" transform="translate(-101.45 -121.64)"/></svg>