<svg id="Layer_1" data-name="Layer 1" xmlns="http://www.w3.org/2000/svg" viewBox="0 0 718.34 643.39"><defs><style>.cls-1{fill:#4540f5;}.cls-2{fill:#eb5173;}.cls-3{stroke:#000;stroke-miterlimit:10;stroke-width:5px;}</style></defs><path class="cls-1" d="M184.35,526.5a141,141,0,0,1,55.19-19.87c-.11-3.49-.22-6.88-.22-10.38,0-141.32,111.18-257.36,250.81-264.92,4.74-.23,9.59-.34,14.45-.34s9.7.11,14.44.34c84.44,4.51,158.37,48.76,203.63,114.23a259.5,259.5,0,0,1,35.22,71.9,265,265,0,0,1,9.37,41.43c.9,6.54,1.58,13.09,1.92,19.64.45,5.87.68,11.74.68,17.72,0,2.14,0,4.4-.12,6.55a141.73,141.73,0,0,1,55.09,20c.11,0,.11.11.22.11a260.9,260.9,0,0,0,1.24-26.64c0-105.31-50.9-199-129.35-257.7a.39.39,0,0,1-.23-.11,311.68,311.68,0,0,0-58.58-34.65,316.51,316.51,0,0,0-133.53-29.24c-142.45,0-263.57,93.12-305.67,221.58-2.15,6.21-3.95,12.41-5.65,18.85A300.36,300.36,0,0,0,186,451.66c-1.13,7.23-1.81,14.45-2.26,21.79-.68,7.56-.9,15.12-.9,22.8q0,14.38,1.35,28.44A9.13,9.13,0,0,0,184.35,526.5Z" transform="translate(-145.86 -174.55)"/><path class="cls-1" d="M826.05,563.86a142.74,142.74,0,0,0-56.78-27.65,135.52,135.52,0,0,0-17.61-3.05,166.39,166.39,0,0,0-20.32-1.24v56.44a112.19,112.19,0,0,1,21.23,2c-38,99.89-134.89,171.12-248,171.12A266.28,266.28,0,0,1,258.05,594.23a99.39,99.39,0,0,1,20.77-2V535.76a161.55,161.55,0,0,0-39.16,4.62,140.69,140.69,0,0,0-56.44,28c-25.63,20.88-36.57,44.24-37.36,46L197.1,638a74.92,74.92,0,0,1,11.4-16.14c1.36,3.39,2.82,6.66,4.52,9.93a322.07,322.07,0,0,0,280,185.91c3.84.11,7.68.23,11.52.23,4.4,0,8.69-.12,13.09-.34h.56c124.28-5.19,230.5-81.16,279.26-188.73,1.58-3.39,3-6.77,4.52-10.27A70.64,70.64,0,0,1,813,634.18l51.25-23.59C863.41,608.79,852.24,584.86,826.05,563.86Z" transform="translate(-145.86 -174.55)"/><path class="cls-2" d="M504.58,290.94a253,253,0,0,0-28,1.47l1.13,218.06L616.18,667.79a266.86,266.86,0,0,0,41.54-38.15L534,489.59l-1-197.18C523.65,291.51,514.17,290.94,504.58,290.94Z" transform="translate(-145.86 -174.55)"/><path class="cls-3" d="M300.48,492.48" transform="translate(-145.86 -174.55)"/></svg>