<svg id="Layer_1" data-name="Layer 1" xmlns="http://www.w3.org/2000/svg" viewBox="0 0 748.46 134.06"><defs><style>.cls-1{fill:#4540f5;}.cls-2{fill:#eb5173;}.cls-3{stroke:#000;stroke-miterlimit:10;stroke-width:5px;}</style></defs><path class="cls-1" d="M133.52,506.13A29.36,29.36,0,0,1,145,502c0-.73,0-1.44,0-2.17a55.36,55.36,0,0,1,52.26-55.2c1,0,2-.07,3-.07s2,0,3,.07a55.17,55.17,0,0,1,42.43,23.8,54,54,0,0,1,7.33,15,55.13,55.13,0,0,1,2,8.63c.19,1.36.33,2.73.4,4.09s.14,2.45.14,3.69c0,.45,0,.92,0,1.37A29.5,29.5,0,0,1,267,505.35s0,0,0,0a53.46,53.46,0,0,0,.26-5.55,67,67,0,0,0-27-53.69s0,0,0,0a67.36,67.36,0,0,0-40-13.31A67.12,67.12,0,0,0,136.56,479c-.45,1.3-.83,2.59-1.18,3.93a63.72,63.72,0,0,0-1.51,7.64c-.23,1.51-.37,3-.47,4.54s-.18,3.15-.18,4.75q0,3,.28,5.93A2.42,2.42,0,0,0,133.52,506.13Z" transform="translate(-125.5 -432.79)"/><path class="cls-1" d="M267.23,513.91a29.87,29.87,0,0,0-11.83-5.76,30.42,30.42,0,0,0-3.67-.64,35.64,35.64,0,0,0-4.23-.25V519a23.2,23.2,0,0,1,4.42.42,55.31,55.31,0,0,1-103,.8,21,21,0,0,1,4.33-.42V508.06a33.64,33.64,0,0,0-8.16,1,29.95,29.95,0,0,0-19.55,15.43l10.68,4.91a15.73,15.73,0,0,1,2.37-3.36,22.73,22.73,0,0,0,.95,2.07,67.1,67.1,0,0,0,58.35,38.74c.8,0,1.6,0,2.4,0s1.81,0,2.73-.07h.11a67,67,0,0,0,58.19-39.32c.33-.71.64-1.41.94-2.14a14.64,14.64,0,0,1,2.28,3.24l10.68-4.91A28.87,28.87,0,0,0,267.23,513.91Z" transform="translate(-125.5 -432.79)"/><path class="cls-2" d="M200.25,457a53.46,53.46,0,0,0-5.84.31l.24,45.44,28.85,32.78a55.42,55.42,0,0,0,8.66-8l-25.77-29.18-.22-41.09C204.22,457.16,202.25,457,200.25,457Z" transform="translate(-125.5 -432.79)"/><path class="cls-3" d="M157.72,499" transform="translate(-125.5 -432.79)"/><path class="cls-1" d="M366.17,520.15V500.21H347.58v19.94H336.06V472.46h11.52v18.05h18.59V472.46h11.52v47.69Z" transform="translate(-125.5 -432.79)"/><path class="cls-1" d="M433.94,520.15l-3.7-9.36H411.78l-3.5,9.36H395.75l20-47.69h11.18l19.81,47.69Zm-12.8-35-6.06,16.37h12Z" transform="translate(-125.5 -432.79)"/><path class="cls-1" d="M482,502.17h-5.73v18H464.79V472.46h17.52c10.44,0,18.66,3.77,18.66,14.69S492,502.17,482,502.17Zm-.67-20.41h-5.06V493h4.85c4.31,0,8.29-1.28,8.29-5.8S485.47,481.76,481.37,481.76Z" transform="translate(-125.5 -432.79)"/><path class="cls-1" d="M539.23,502.17H533.5v18H522V472.46H539.5c10.44,0,18.66,3.77,18.66,14.69S549.2,502.17,539.23,502.17Zm-.67-20.41H533.5V493h4.85c4.32,0,8.29-1.28,8.29-5.8S542.67,481.76,538.56,481.76Z" transform="translate(-125.5 -432.79)"/><path class="cls-1" d="M601.14,500v20.2H589.62V500L571.7,472.46h13.95l10.17,17.65L606,472.46h13.47Z" transform="translate(-125.5 -432.79)"/><path class="cls-2" d="M673.49,474.81v43h-6.81V497.86h-23.3V517.8h-6.81v-43h6.81v18.06h23.3V474.81h6.81m2.35-2.35H664.33v18.05h-18.6V472.46H634.21v47.69h11.52V500.21h18.6v19.94h11.51V472.46Z" transform="translate(-125.5 -432.79)"/><path class="cls-2" d="M723.47,473.53c14.15,0,23.65,9.07,23.65,22.57s-9.73,23-23.65,23-23.58-9.45-23.58-23,9.47-22.57,23.58-22.57m0,39.75c9.29,0,16-7.23,16-17.18,0-9.79-6.74-16.9-16-16.9s-16,7.11-16,16.9c0,9.95,6.71,17.18,16,17.18m0-42.1c-14.89,0-25.93,9.63-25.93,24.92,0,15.09,11,25.33,25.93,25.33s26-10.24,26-25.33c0-15.29-11.05-24.92-26-24.92Zm0,39.74c-8,0-13.61-6.19-13.61-14.82,0-8.35,5.53-14.55,13.61-14.55s13.67,6.2,13.67,14.55c0,8.63-5.66,14.82-13.67,14.82Z" transform="translate(-125.5 -432.79)"/><path class="cls-2" d="M809.23,474.81v27.36c0,10.27-7.14,16.91-18.19,16.91s-18-6.48-18-16.91V474.81h6.75v26.41c0,7.41,4.44,12.19,11.31,12.19s11.31-4.67,11.31-12.19V474.81h6.82m2.35-2.35H800.06v28.76c0,5.12-2.42,9.84-9,9.84s-9-4.72-9-9.84V472.46H770.69v29.71c0,11.45,7.82,19.26,20.35,19.26s20.54-7.81,20.54-19.26V472.46Z" transform="translate(-125.5 -432.79)"/><path class="cls-2" d="M853.15,474.81c5.93,0,15.9,1.57,15.9,12.07,0,5.21-2.93,9-8.24,10.61l-2.9.9,1.58,2.58,10.28,16.83h-7.89l-9.63-17.7-.67-1.23h-7.66V517.8h-6.61v-43h15.84m-9.29,20.41h7.8c9.67,0,10.71-5.69,10.71-8.14s-1-7.68-10-7.68h-8.48v15.82m9.29-22.76H835v47.69h11.31V501.22h3.91l10.31,18.93H874L861.5,499.74c6.13-1.89,9.9-6.47,9.9-12.86,0-10.92-9.09-14.42-18.25-14.42Zm-6.94,20.41V481.76h6.13c3.43,0,7.68.87,7.68,5.32,0,4.85-4.65,5.79-8.36,5.79Z" transform="translate(-125.5 -432.79)"/></svg>